<svg xmlns="http://www.w3.org/2000/svg" version="1.1" xmlns:xlink="http://www.w3.org/1999/xlink" xmlns:svgjs="http://svgjs.dev/svgjs" width="1000" height="1000" viewBox="0 0 1000 1000"><rect width="1000" height="1000" fill="#000000"></rect><g transform="matrix(0.7,0,0,0.7,149.57575857492702,371.5791487148881)"><svg viewBox="0 0 396 146" data-background-color="#ffffff" preserveAspectRatio="xMidYMid meet" height="368" width="1000" xmlns="http://www.w3.org/2000/svg" xmlns:xlink="http://www.w3.org/1999/xlink"><g id="tight-bounds" transform="matrix(1,0,0,1,0.23999943475556051,-0.21489018778594016)"><svg viewBox="0 0 395.5199999999999 146.42978037557188" height="146.42978037557188" width="395.5199999999999"><g><svg viewBox="0 0 661.5891655847353 244.93415305276764" height="146.42978037557188" width="395.5199999999999"><g><rect width="8.312138820007021" height="244.93415305276764" x="245.16546961896765" y="0" fill="#ffffff" opacity="1" stroke-width="0" stroke="transparent" fill-opacity="1" class="rect-o-0" data-fill-palette-color="primary" rx="1%" id="o-0" data-palette-color="#010c80"></rect></g><g transform="matrix(1,0,0,1,275.23713414579936,0.6092889379421962)"><svg viewBox="0 0 386.3520314389359 243.71557517688325" height="243.71557517688325" width="386.3520314389359"><g id="textblocktransform"><svg viewBox="0 0 386.3520314389359 243.71557517688325" height="243.71557517688325" width="386.3520314389359" id="textblock"><g><svg viewBox="0 0 386.3520314389359 198.764" height="198.764" width="386.3520314389359"><g transform="matrix(1,0,0,1,0,0)"><svg width="386.3520314389359" viewBox="1.199999213218689 -37.95000076293945 160.75 79.70000457763672" height="198.764" data-palette-color="#010c80"><svg></svg><svg></svg><g class="wordmark-text-0" data-fill-palette-color="primary" id="text-0"><path xmlns="http://www.w3.org/2000/svg" d="M25.2-34.25v0l-1.95 4.45c-1.367-0.5-2.723-0.9-4.07-1.2-1.353-0.3-2.647-0.45-3.88-0.45v0c-2.1 0-3.773 0.433-5.02 1.3-1.253 0.867-1.88 1.967-1.88 3.3v0c0 1.133 0.45 2.04 1.35 2.72 0.9 0.687 2.017 1.303 3.35 1.85 1.333 0.553 2.783 1.103 4.35 1.65 1.567 0.553 3.017 1.263 4.35 2.13 1.333 0.867 2.45 1.957 3.35 3.27 0.9 1.32 1.35 3.013 1.35 5.08v0c0 1.6-0.29 3.04-0.87 4.32-0.587 1.287-1.453 2.397-2.6 3.33-1.153 0.933-2.587 1.65-4.3 2.15-1.72 0.5-3.73 0.75-6.03 0.75v0c-1.467 0-2.793-0.1-3.98-0.3-1.18-0.2-2.243-0.46-3.19-0.78-0.953-0.313-1.787-0.653-2.5-1.02-0.72-0.367-1.33-0.7-1.83-1v0l2.4-4.75c1.333 0.767 2.817 1.383 4.45 1.85 1.633 0.467 3.117 0.7 4.45 0.7v0c0.667 0 1.493-0.083 2.48-0.25 0.98-0.167 1.92-0.46 2.82-0.88 0.9-0.413 1.677-0.97 2.33-1.67 0.647-0.7 0.97-1.583 0.97-2.65v0c0-0.967-0.257-1.793-0.77-2.48-0.52-0.68-1.203-1.28-2.05-1.8-0.853-0.513-1.82-0.98-2.9-1.4-1.087-0.413-2.197-0.843-3.33-1.29-1.133-0.453-2.243-0.93-3.33-1.43-1.08-0.5-2.043-1.11-2.89-1.83-0.853-0.713-1.537-1.547-2.05-2.5-0.52-0.947-0.78-2.087-0.78-3.42v0c0-1.233 0.25-2.45 0.75-3.65 0.5-1.2 1.25-2.267 2.25-3.2 1-0.933 2.243-1.683 3.73-2.25 1.48-0.567 3.203-0.85 5.17-0.85v0c1.2 0 2.377 0.1 3.53 0.3 1.147 0.2 2.187 0.423 3.12 0.67 0.933 0.253 1.727 0.497 2.38 0.73 0.647 0.233 1.07 0.4 1.27 0.5zM32.7 0v-37.85c0.3 0.467 0.927 1.357 1.88 2.67 0.947 1.32 2.047 2.847 3.3 4.58 1.247 1.733 2.57 3.573 3.97 5.52 1.4 1.953 2.717 3.787 3.95 5.5 1.233 1.72 2.31 3.213 3.23 4.48 0.913 1.267 1.52 2.1 1.82 2.5v0c0.1-0.167 0.417-0.617 0.95-1.35 0.533-0.733 1.193-1.65 1.98-2.75 0.78-1.1 1.67-2.343 2.67-3.73 1-1.38 2.027-2.797 3.08-4.25 1.047-1.447 2.08-2.887 3.1-4.32 1.013-1.433 1.953-2.743 2.82-3.93 0.867-1.18 1.61-2.21 2.23-3.09 0.613-0.887 1.053-1.497 1.32-1.83v0 37.85h-5.8v-20.3c0-0.267 0.023-0.55 0.07-0.85 0.053-0.3 0.08-0.517 0.08-0.65v0c-0.3 0.4-0.773 1.073-1.42 2.02-0.653 0.953-1.407 2.037-2.26 3.25-0.847 1.22-1.737 2.503-2.67 3.85-0.933 1.353-1.817 2.63-2.65 3.83-0.833 1.2-1.567 2.257-2.2 3.17-0.633 0.92-1.067 1.563-1.3 1.93v0c-0.233-0.3-0.69-0.927-1.37-1.88-0.687-0.947-1.487-2.053-2.4-3.32-0.92-1.267-1.89-2.617-2.91-4.05-1.013-1.433-1.953-2.767-2.82-4-0.867-1.233-1.617-2.293-2.25-3.18-0.633-0.88-1-1.42-1.1-1.62v0c0 0.133 0.027 0.35 0.08 0.65 0.047 0.3 0.07 0.583 0.07 0.85v0 20.3zM105.75 0h-5.4c-0.167-0.367-0.4-0.9-0.7-1.6-0.3-0.7-0.64-1.51-1.02-2.43-0.387-0.913-0.803-1.913-1.25-3-0.453-1.08-0.913-2.203-1.38-3.37v0h-12.8l-4.3 10.4h-5.4l16.15-37.95c0.2 0.467 0.56 1.317 1.08 2.55 0.513 1.233 1.13 2.707 1.85 4.42 0.713 1.72 1.513 3.62 2.4 5.7 0.88 2.087 1.78 4.197 2.7 6.33 0.913 2.133 1.813 4.233 2.7 6.3 0.88 2.067 1.687 3.967 2.42 5.7 0.733 1.733 1.36 3.207 1.88 4.42 0.513 1.22 0.87 2.063 1.07 2.53zM89.1-24.7l-4 9.7h9.05c-0.467-1.1-0.907-2.16-1.32-3.18-0.42-1.013-0.803-1.947-1.15-2.8-0.353-0.847-0.663-1.587-0.93-2.22-0.267-0.633-0.467-1.133-0.6-1.5v0c-0.033-0.067-0.107-0.3-0.22-0.7-0.12-0.4-0.213-0.767-0.28-1.1v0c-0.067 0.333-0.167 0.7-0.3 1.1-0.133 0.4-0.217 0.633-0.25 0.7zM115.75 0h-5.5v-36.25h9.9c1.9 0 3.643 0.25 5.23 0.75 1.58 0.5 2.947 1.243 4.1 2.23 1.147 0.98 2.037 2.177 2.67 3.59 0.633 1.42 0.95 3.047 0.95 4.88v0c0 1-0.1 1.99-0.3 2.97-0.2 0.987-0.523 1.937-0.97 2.85-0.453 0.92-1.03 1.77-1.73 2.55-0.7 0.787-1.55 1.447-2.55 1.98v0c1.333 2.1 2.783 4.423 4.35 6.97 1.567 2.553 3.15 5.047 4.75 7.48v0h-6.55c-0.667-1.033-1.357-2.117-2.07-3.25-0.72-1.133-1.437-2.26-2.15-3.38-0.72-1.113-1.42-2.213-2.1-3.3-0.687-1.08-1.33-2.087-1.93-3.02v0h-1-5.1zM115.75-31.15v13.05h4.95c1.333 0 2.45-0.227 3.35-0.68 0.9-0.447 1.61-1.003 2.13-1.67 0.513-0.667 0.88-1.383 1.1-2.15 0.213-0.767 0.32-1.467 0.32-2.1v0c0-0.633-0.107-1.327-0.32-2.08-0.22-0.747-0.597-1.447-1.13-2.1-0.533-0.647-1.24-1.187-2.12-1.62-0.887-0.433-1.98-0.65-3.28-0.65v0zM138.4-36.25h23.55v5.2h-9.15v31.05h-5.45v-31.05h-8.95z" fill="#ffffff" fill-rule="nonzero" stroke="none" stroke-width="1" stroke-linecap="butt" stroke-linejoin="miter" stroke-miterlimit="10" stroke-dasharray="" stroke-dashoffset="0" font-family="none" font-weight="none" font-size="none" text-anchor="none" style="mix-blend-mode: normal" data-fill-palette-color="primary" opacity="1"></path><path xmlns="http://www.w3.org/2000/svg" d="M9.95 10.2v13.05h4.95c1.333 0 2.45-0.233 3.35-0.7 0.9-0.467 1.61-1.033 2.13-1.7 0.513-0.667 0.88-1.383 1.1-2.15 0.213-0.767 0.32-1.45 0.32-2.05v0c0-0.633-0.107-1.327-0.32-2.08-0.22-0.747-0.597-1.447-1.13-2.1-0.533-0.647-1.24-1.187-2.12-1.62-0.887-0.433-1.98-0.65-3.28-0.65v0zM9.95 41.35h-5.5v-36.25h9.9c1.9 0 3.643 0.25 5.23 0.75 1.58 0.5 2.947 1.243 4.1 2.23 1.147 0.98 2.037 2.177 2.67 3.59 0.633 1.42 0.95 3.047 0.95 4.88v0c0 1.433-0.217 2.857-0.65 4.27-0.433 1.42-1.133 2.687-2.1 3.8-0.967 1.12-2.233 2.03-3.8 2.73-1.567 0.7-3.467 1.05-5.7 1.05v0h-5.1zM30.75 23.25v0c0-2.5 0.483-4.877 1.45-7.13 0.967-2.247 2.293-4.22 3.98-5.92 1.68-1.7 3.637-3.043 5.87-4.03 2.233-0.98 4.633-1.47 7.2-1.47v0c2.533 0 4.927 0.49 7.18 1.47 2.247 0.987 4.213 2.33 5.9 4.03 1.68 1.7 3.013 3.673 4 5.92 0.98 2.253 1.47 4.63 1.47 7.13v0c0 2.567-0.49 4.967-1.47 7.2-0.987 2.233-2.32 4.19-4 5.87-1.687 1.687-3.653 3.013-5.9 3.98-2.253 0.967-4.647 1.45-7.18 1.45v0c-2.567 0-4.967-0.483-7.2-1.45-2.233-0.967-4.19-2.293-5.87-3.98-1.687-1.68-3.013-3.637-3.98-5.87-0.967-2.233-1.45-4.633-1.45-7.2zM36.2 23.3v0c0 1.833 0.343 3.557 1.03 5.17 0.68 1.62 1.62 3.03 2.82 4.23 1.2 1.2 2.6 2.15 4.2 2.85 1.6 0.7 3.3 1.05 5.1 1.05v0c1.8 0 3.493-0.35 5.08-1.05 1.58-0.7 2.963-1.65 4.15-2.85 1.18-1.2 2.113-2.61 2.8-4.23 0.68-1.613 1.02-3.353 1.02-5.22v0c0-1.833-0.34-3.56-1.02-5.18-0.687-1.613-1.63-3.02-2.83-4.22-1.2-1.2-2.59-2.15-4.17-2.85-1.587-0.7-3.28-1.05-5.08-1.05v0c-1.8 0-3.5 0.35-5.1 1.05-1.6 0.7-2.99 1.65-4.17 2.85-1.187 1.2-2.12 2.617-2.8 4.25-0.687 1.633-1.03 3.367-1.03 5.2zM94.55 7.1v0l-1.95 4.45c-1.367-0.5-2.723-0.9-4.07-1.2-1.353-0.3-2.647-0.45-3.88-0.45v0c-2.1 0-3.773 0.433-5.02 1.3-1.253 0.867-1.88 1.967-1.88 3.3v0c0 1.133 0.45 2.04 1.35 2.72 0.9 0.687 2.017 1.303 3.35 1.85 1.333 0.553 2.783 1.103 4.35 1.65 1.567 0.553 3.017 1.263 4.35 2.13 1.333 0.867 2.45 1.957 3.35 3.27 0.9 1.32 1.35 3.013 1.35 5.08v0c0 1.6-0.29 3.04-0.87 4.32-0.587 1.287-1.453 2.397-2.6 3.33-1.153 0.933-2.587 1.65-4.3 2.15-1.72 0.5-3.73 0.75-6.03 0.75v0c-1.467 0-2.79-0.1-3.97-0.3-1.187-0.2-2.253-0.46-3.2-0.78-0.953-0.313-1.787-0.653-2.5-1.02-0.72-0.367-1.33-0.7-1.83-1v0l2.4-4.75c1.333 0.767 2.817 1.383 4.45 1.85 1.633 0.467 3.117 0.7 4.45 0.7v0c0.667 0 1.493-0.083 2.48-0.25 0.98-0.167 1.92-0.46 2.82-0.88 0.9-0.413 1.677-0.97 2.33-1.67 0.647-0.7 0.97-1.583 0.97-2.65v0c0-0.967-0.257-1.793-0.77-2.48-0.52-0.68-1.203-1.28-2.05-1.8-0.853-0.513-1.82-0.98-2.9-1.4-1.087-0.413-2.197-0.843-3.33-1.29-1.133-0.453-2.24-0.93-3.32-1.43-1.087-0.5-2.053-1.11-2.9-1.83-0.853-0.713-1.537-1.547-2.05-2.5-0.52-0.947-0.78-2.087-0.78-3.42v0c0-1.233 0.25-2.45 0.75-3.65 0.5-1.2 1.25-2.267 2.25-3.2 1-0.933 2.243-1.683 3.73-2.25 1.48-0.567 3.203-0.85 5.17-0.85v0c1.2 0 2.377 0.1 3.53 0.3 1.147 0.2 2.187 0.423 3.12 0.67 0.933 0.253 1.727 0.497 2.38 0.73 0.647 0.233 1.07 0.4 1.27 0.5z" fill="#ffffff" fill-rule="nonzero" stroke="none" stroke-width="1" stroke-linecap="butt" stroke-linejoin="miter" stroke-miterlimit="10" stroke-dasharray="" stroke-dashoffset="0" font-family="none" font-weight="none" font-size="none" text-anchor="none" style="mix-blend-mode: normal" data-fill-palette-color="primary" opacity="1"></path></g></svg></g></svg></g><g transform="matrix(1,0,0,1,0,220.52352570682467)"><svg viewBox="0 0 226.82727765779927 23.192049470058578" height="23.192049470058578" width="226.82727765779927"><g transform="matrix(1,0,0,1,0,0)"><svg width="226.82727765779927" viewBox="1.100000023841858 -36.83000183105469 364.0400085449219 37.230003356933594" height="23.192049470058578" data-palette-color="#77d4fc"><path d="M11.33 0.4L11.33 0.4Q8.33 0.4 6.71-1.28 5.1-2.95 5.1-6.1L5.1-6.1 5.1-21.6 2.05-21.6Q1.65-21.6 1.38-21.84 1.1-22.08 1.1-22.58L1.1-22.58 1.1-24.35 5.25-24.88 6.28-32.7Q6.33-33.08 6.6-33.31 6.88-33.55 7.3-33.55L7.3-33.55 9.55-33.55 9.55-24.83 16.8-24.83 16.8-21.6 9.55-21.6 9.55-6.4Q9.55-4.8 10.33-4.03 11.1-3.25 12.33-3.25L12.33-3.25Q13.03-3.25 13.54-3.44 14.05-3.63 14.43-3.85 14.8-4.08 15.06-4.26 15.33-4.45 15.53-4.45L15.53-4.45Q15.88-4.45 16.15-4.03L16.15-4.03 17.45-1.9Q16.3-0.83 14.68-0.21 13.05 0.4 11.33 0.4ZM26.75 0L22.3 0 22.3-36.83 26.75-36.83 26.75-21.93Q28.37-23.65 30.35-24.69 32.32-25.73 34.9-25.73L34.9-25.73Q36.97-25.73 38.56-25.04 40.15-24.35 41.21-23.09 42.27-21.83 42.82-20.05 43.37-18.28 43.37-16.13L43.37-16.13 43.37 0 38.92 0 38.92-16.13Q38.92-19 37.61-20.59 36.3-22.18 33.6-22.18L33.6-22.18Q31.62-22.18 29.91-21.23 28.2-20.28 26.75-18.65L26.75-18.65 26.75 0ZM60.12-25.73L60.12-25.73Q62.4-25.73 64.32-24.96 66.25-24.2 67.65-22.76 69.05-21.33 69.83-19.21 70.62-17.1 70.62-14.4L70.62-14.4Q70.62-13.35 70.4-13 70.17-12.65 69.55-12.65L69.55-12.65 52.7-12.65Q52.75-10.25 53.35-8.47 53.95-6.7 55-5.51 56.05-4.33 57.5-3.74 58.95-3.15 60.75-3.15L60.75-3.15Q62.42-3.15 63.63-3.54 64.85-3.93 65.72-4.38 66.6-4.83 67.18-5.21 67.77-5.6 68.2-5.6L68.2-5.6Q68.75-5.6 69.05-5.18L69.05-5.18 70.3-3.55Q69.47-2.55 68.32-1.81 67.17-1.07 65.86-0.6 64.55-0.13 63.15 0.11 61.75 0.35 60.37 0.35L60.37 0.35Q57.75 0.35 55.53-0.54 53.32-1.43 51.71-3.14 50.1-4.85 49.2-7.38 48.3-9.9 48.3-13.18L48.3-13.18Q48.3-15.83 49.11-18.13 49.92-20.43 51.45-22.11 52.97-23.8 55.17-24.76 57.37-25.73 60.12-25.73ZM60.22-22.45L60.22-22.45Q57-22.45 55.15-20.59 53.3-18.73 52.85-15.43L52.85-15.43 66.62-15.43Q66.62-16.98 66.2-18.26 65.77-19.55 64.95-20.49 64.12-21.43 62.93-21.94 61.75-22.45 60.22-22.45ZM101.44-22.78L100.44-21.15Q100.14-20.6 99.52-20.6L99.52-20.6Q99.14-20.6 98.67-20.88 98.19-21.15 97.5-21.49 96.82-21.83 95.87-22.11 94.92-22.4 93.62-22.4L93.62-22.4Q92.49-22.4 91.59-22.11 90.69-21.83 90.05-21.33 89.42-20.83 89.08-20.16 88.74-19.5 88.74-18.73L88.74-18.73Q88.74-17.75 89.3-17.1 89.87-16.45 90.79-15.98 91.72-15.5 92.89-15.14 94.07-14.78 95.3-14.36 96.54-13.95 97.72-13.45 98.89-12.95 99.82-12.2 100.74-11.45 101.3-10.36 101.87-9.28 101.87-7.75L101.87-7.75Q101.87-6 101.24-4.51 100.62-3.03 99.39-1.94 98.17-0.85 96.39-0.23 94.62 0.4 92.29 0.4L92.29 0.4Q89.64 0.4 87.49-0.46 85.34-1.33 83.84-2.68L83.84-2.68 84.89-4.38Q85.09-4.7 85.37-4.88 85.64-5.05 86.09-5.05L86.09-5.05Q86.54-5.05 87.04-4.7 87.54-4.35 88.25-3.93 88.97-3.5 89.98-3.15 90.99-2.8 92.52-2.8L92.52-2.8Q93.82-2.8 94.79-3.14 95.77-3.48 96.42-4.05 97.07-4.63 97.38-5.38 97.69-6.13 97.69-6.98L97.69-6.98Q97.69-8.03 97.13-8.71 96.57-9.4 95.64-9.89 94.72-10.38 93.53-10.74 92.34-11.1 91.1-11.5 89.87-11.9 88.68-12.41 87.49-12.93 86.57-13.7 85.64-14.48 85.08-15.61 84.52-16.75 84.52-18.38L84.52-18.38Q84.52-19.83 85.12-21.16 85.72-22.5 86.87-23.51 88.02-24.53 89.69-25.13 91.37-25.73 93.52-25.73L93.52-25.73Q96.02-25.73 98-24.94 99.99-24.15 101.44-22.78L101.44-22.78ZM112.09 0L107.64 0 107.64-25.33 110.29-25.33Q111.24-25.33 111.49-24.4L111.49-24.4 111.81-21.8Q113.21-23.53 114.95-24.63 116.69-25.73 118.99-25.73L118.99-25.73Q121.56-25.73 123.15-24.3 124.74-22.88 125.44-20.45L125.44-20.45Q125.96-21.83 126.83-22.83 127.69-23.83 128.76-24.48 129.84-25.13 131.05-25.43 132.26-25.73 133.51-25.73L133.51-25.73Q135.51-25.73 137.08-25.09 138.64-24.45 139.73-23.23 140.81-22 141.39-20.21 141.96-18.43 141.96-16.13L141.96-16.13 141.96 0 137.51 0 137.51-16.13Q137.51-19.1 136.21-20.64 134.91-22.18 132.44-22.18L132.44-22.18Q131.34-22.18 130.35-21.79 129.36-21.4 128.61-20.65 127.86-19.9 127.43-18.76 126.99-17.63 126.99-16.13L126.99-16.13 126.99 0 122.54 0 122.54-16.13Q122.54-19.18 121.31-20.68 120.09-22.18 117.74-22.18L117.74-22.18Q116.09-22.18 114.68-21.29 113.26-20.4 112.09-18.88L112.09-18.88 112.09 0ZM167.29-16.2L167.29 0 165.31 0Q164.66 0 164.26-0.2 163.86-0.4 163.74-1.05L163.74-1.05 163.24-3.4Q162.24-2.5 161.29-1.79 160.34-1.07 159.29-0.59 158.24-0.1 157.05 0.15 155.86 0.4 154.41 0.4L154.41 0.4Q152.94 0.4 151.65-0.01 150.36-0.43 149.41-1.25 148.46-2.08 147.9-3.34 147.34-4.6 147.34-6.33L147.34-6.33Q147.34-7.83 148.16-9.21 148.99-10.6 150.82-11.68 152.66-12.75 155.64-13.44 158.61-14.13 162.91-14.23L162.91-14.23 162.91-16.2Q162.91-19.15 161.65-20.66 160.39-22.18 157.91-22.18L157.91-22.18Q156.29-22.18 155.17-21.76 154.06-21.35 153.25-20.84 152.44-20.33 151.85-19.91 151.26-19.5 150.69-19.5L150.69-19.5Q150.24-19.5 149.9-19.74 149.56-19.98 149.36-20.33L149.36-20.33 148.56-21.75Q150.66-23.78 153.09-24.78 155.51-25.78 158.46-25.78L158.46-25.78Q160.59-25.78 162.24-25.08 163.89-24.38 165.01-23.13 166.14-21.88 166.71-20.1 167.29-18.32 167.29-16.2L167.29-16.2ZM155.74-2.73L155.74-2.73Q156.91-2.73 157.89-2.96 158.86-3.2 159.72-3.64 160.59-4.08 161.37-4.7 162.16-5.33 162.91-6.13L162.91-6.13 162.91-11.4Q159.84-11.3 157.69-10.91 155.54-10.53 154.19-9.9 152.84-9.28 152.22-8.43 151.61-7.58 151.61-6.53L151.61-6.53Q151.61-5.53 151.94-4.8 152.26-4.08 152.81-3.61 153.36-3.15 154.11-2.94 154.86-2.73 155.74-2.73ZM178.48 0L174.03 0 174.03-25.33 176.58-25.33Q177.31-25.33 177.58-25.05 177.86-24.78 177.96-24.1L177.96-24.1 178.26-20.15Q179.56-22.8 181.47-24.29 183.38-25.78 185.96-25.78L185.96-25.78Q187.01-25.78 187.86-25.54 188.71-25.3 189.43-24.88L189.43-24.88 188.86-21.55Q188.68-20.93 188.08-20.93L188.08-20.93Q187.73-20.93 187.01-21.16 186.28-21.4 184.98-21.4L184.98-21.4Q182.66-21.4 181.1-20.05 179.53-18.7 178.48-16.13L178.48-16.13 178.48 0ZM201.86 0.4L201.86 0.4Q198.86 0.4 197.24-1.28 195.63-2.95 195.63-6.1L195.63-6.1 195.63-21.6 192.58-21.6Q192.18-21.6 191.91-21.84 191.63-22.08 191.63-22.58L191.63-22.58 191.63-24.35 195.78-24.88 196.81-32.7Q196.86-33.08 197.13-33.31 197.41-33.55 197.83-33.55L197.83-33.55 200.08-33.55 200.08-24.83 207.33-24.83 207.33-21.6 200.08-21.6 200.08-6.4Q200.08-4.8 200.86-4.03 201.63-3.25 202.86-3.25L202.86-3.25Q203.56-3.25 204.07-3.44 204.58-3.63 204.96-3.85 205.33-4.08 205.59-4.26 205.86-4.45 206.06-4.45L206.06-4.45Q206.41-4.45 206.68-4.03L206.68-4.03 207.98-1.9Q206.83-0.83 205.21-0.21 203.58 0.4 201.86 0.4ZM222.85-25.73L222.85-25.73Q225.13-25.73 227.05-24.96 228.98-24.2 230.38-22.76 231.78-21.33 232.57-19.21 233.35-17.1 233.35-14.4L233.35-14.4Q233.35-13.35 233.13-13 232.9-12.65 232.28-12.65L232.28-12.65 215.43-12.65Q215.48-10.25 216.08-8.47 216.68-6.7 217.73-5.51 218.78-4.33 220.23-3.74 221.68-3.15 223.48-3.15L223.48-3.15Q225.15-3.15 226.37-3.54 227.58-3.93 228.45-4.38 229.33-4.83 229.92-5.21 230.5-5.6 230.93-5.6L230.93-5.6Q231.48-5.6 231.78-5.18L231.78-5.18 233.03-3.55Q232.2-2.55 231.05-1.81 229.9-1.07 228.59-0.6 227.28-0.13 225.88 0.11 224.48 0.35 223.1 0.35L223.1 0.35Q220.48 0.35 218.27-0.54 216.05-1.43 214.44-3.14 212.83-4.85 211.93-7.38 211.03-9.9 211.03-13.18L211.03-13.18Q211.03-15.83 211.84-18.13 212.65-20.43 214.18-22.11 215.7-23.8 217.9-24.76 220.1-25.73 222.85-25.73ZM222.95-22.45L222.95-22.45Q219.73-22.45 217.88-20.59 216.03-18.73 215.58-15.43L215.58-15.43 229.35-15.43Q229.35-16.98 228.93-18.26 228.5-19.55 227.68-20.49 226.85-21.43 225.67-21.94 224.48-22.45 222.95-22.45ZM254.53-22.78L253.53-21.15Q253.23-20.6 252.6-20.6L252.6-20.6Q252.23-20.6 251.75-20.88 251.28-21.15 250.59-21.49 249.9-21.83 248.95-22.11 248-22.4 246.7-22.4L246.7-22.4Q245.58-22.4 244.68-22.11 243.78-21.83 243.14-21.33 242.5-20.83 242.16-20.16 241.83-19.5 241.83-18.73L241.83-18.73Q241.83-17.75 242.39-17.1 242.95-16.45 243.88-15.98 244.8-15.5 245.98-15.14 247.15-14.78 248.39-14.36 249.63-13.95 250.8-13.45 251.98-12.95 252.9-12.2 253.83-11.45 254.39-10.36 254.95-9.28 254.95-7.75L254.95-7.75Q254.95-6 254.33-4.51 253.7-3.03 252.48-1.94 251.25-0.85 249.48-0.23 247.7 0.4 245.38 0.4L245.38 0.4Q242.73 0.4 240.58-0.46 238.43-1.33 236.93-2.68L236.93-2.68 237.98-4.38Q238.18-4.7 238.45-4.88 238.73-5.05 239.18-5.05L239.18-5.05Q239.63-5.05 240.13-4.7 240.63-4.35 241.34-3.93 242.05-3.5 243.06-3.15 244.08-2.8 245.6-2.8L245.6-2.8Q246.9-2.8 247.88-3.14 248.85-3.48 249.5-4.05 250.15-4.63 250.46-5.38 250.78-6.13 250.78-6.98L250.78-6.98Q250.78-8.03 250.21-8.71 249.65-9.4 248.73-9.89 247.8-10.38 246.61-10.74 245.43-11.1 244.19-11.5 242.95-11.9 241.76-12.41 240.58-12.93 239.65-13.7 238.73-14.48 238.16-15.61 237.6-16.75 237.6-18.38L237.6-18.38Q237.6-19.83 238.2-21.16 238.8-22.5 239.95-23.51 241.1-24.53 242.78-25.13 244.45-25.73 246.6-25.73L246.6-25.73Q249.1-25.73 251.09-24.94 253.08-24.15 254.53-22.78L254.53-22.78ZM268.4 0.4L268.4 0.4Q265.4 0.4 263.79-1.28 262.17-2.95 262.17-6.1L262.17-6.1 262.17-21.6 259.12-21.6Q258.72-21.6 258.45-21.84 258.17-22.08 258.17-22.58L258.17-22.58 258.17-24.35 262.32-24.88 263.35-32.7Q263.4-33.08 263.67-33.31 263.95-33.55 264.37-33.55L264.37-33.55 266.62-33.55 266.62-24.83 273.87-24.83 273.87-21.6 266.62-21.6 266.62-6.4Q266.62-4.8 267.4-4.03 268.17-3.25 269.4-3.25L269.4-3.25Q270.1-3.25 270.61-3.44 271.12-3.63 271.5-3.85 271.87-4.08 272.14-4.26 272.4-4.45 272.6-4.45L272.6-4.45Q272.95-4.45 273.22-4.03L273.22-4.03 274.52-1.9Q273.37-0.83 271.75-0.21 270.12 0.4 268.4 0.4ZM299.27-25.73L299.27-25.73Q302.04-25.73 304.28-24.8 306.52-23.88 308.08-22.18 309.64-20.48 310.48-18.06 311.32-15.65 311.32-12.68L311.32-12.68Q311.32-9.68 310.48-7.28 309.64-4.88 308.08-3.18 306.52-1.48 304.28-0.56 302.04 0.35 299.27 0.35L299.27 0.35Q296.49 0.35 294.25-0.56 292.02-1.48 290.44-3.18 288.87-4.88 288.02-7.28 287.17-9.68 287.17-12.68L287.17-12.68Q287.17-15.65 288.02-18.06 288.87-20.48 290.44-22.18 292.02-23.88 294.25-24.8 296.49-25.73 299.27-25.73ZM299.27-3.13L299.27-3.13Q303.02-3.13 304.87-5.64 306.72-8.15 306.72-12.65L306.72-12.65Q306.72-17.18 304.87-19.7 303.02-22.23 299.27-22.23L299.27-22.23Q297.37-22.23 295.97-21.58 294.57-20.93 293.63-19.7 292.69-18.48 292.23-16.69 291.77-14.9 291.77-12.65L291.77-12.65Q291.77-10.4 292.23-8.63 292.69-6.85 293.63-5.64 294.57-4.42 295.97-3.78 297.37-3.13 299.27-3.13ZM321.27 0L316.81 0 316.81-25.33 319.47-25.33Q320.42-25.33 320.67-24.4L320.67-24.4 321.02-21.65Q322.67-23.48 324.7-24.6 326.74-25.73 329.42-25.73L329.42-25.73Q331.49-25.73 333.08-25.04 334.67-24.35 335.73-23.09 336.79-21.83 337.34-20.05 337.89-18.28 337.89-16.13L337.89-16.13 337.89 0 333.44 0 333.44-16.13Q333.44-19 332.13-20.59 330.81-22.18 328.12-22.18L328.12-22.18Q326.14-22.18 324.43-21.23 322.72-20.28 321.27-18.65L321.27-18.65 321.27 0ZM354.64-25.73L354.64-25.73Q356.91-25.73 358.84-24.96 360.76-24.2 362.16-22.76 363.56-21.33 364.35-19.21 365.14-17.1 365.14-14.4L365.14-14.4Q365.14-13.35 364.91-13 364.69-12.65 364.06-12.65L364.06-12.65 347.21-12.65Q347.26-10.25 347.86-8.47 348.46-6.7 349.51-5.51 350.56-4.33 352.01-3.74 353.46-3.15 355.26-3.15L355.26-3.15Q356.94-3.15 358.15-3.54 359.36-3.93 360.24-4.38 361.11-4.83 361.7-5.21 362.29-5.6 362.71-5.6L362.71-5.6Q363.26-5.6 363.56-5.18L363.56-5.18 364.81-3.55Q363.99-2.55 362.84-1.81 361.69-1.07 360.38-0.6 359.06-0.13 357.66 0.11 356.26 0.35 354.89 0.35L354.89 0.35Q352.26 0.35 350.05-0.54 347.84-1.43 346.23-3.14 344.61-4.85 343.71-7.38 342.81-9.9 342.81-13.18L342.81-13.18Q342.81-15.83 343.63-18.13 344.44-20.43 345.96-22.11 347.49-23.8 349.69-24.76 351.89-25.73 354.64-25.73ZM354.74-22.45L354.74-22.45Q351.51-22.45 349.66-20.59 347.81-18.73 347.36-15.43L347.36-15.43 361.14-15.43Q361.14-16.98 360.71-18.26 360.29-19.55 359.46-20.49 358.64-21.43 357.45-21.94 356.26-22.45 354.74-22.45Z" opacity="1" transform="matrix(1,0,0,1,0,0)" fill="#ffffff" class="slogan-text-1" data-fill-palette-color="secondary" id="text-1"></path></svg></g></svg></g></svg></g></svg></g><g transform="matrix(1,0,0,1,0,0.6092889379421962)"><svg viewBox="0 0 223.405943912143 243.71557517688325" height="243.71557517688325" width="223.405943912143"><g><svg xmlns="http://www.w3.org/2000/svg" xmlns:xlink="http://www.w3.org/1999/xlink" version="1.1" x="0" y="0" viewBox="1 0 22 24" style="enable-background:new 0 0 24 24;" xml:space="preserve" height="243.71557517688325" width="223.405943912143" class="icon-icon-0" data-fill-palette-color="accent" id="icon-0"><g fill="#77d4fc" data-fill-palette-color="accent"><g fill="#77d4fc" data-fill-palette-color="accent"><path d="M12.278 16.084c-0.168-0.112-0.387-0.112-0.555 0l-1.5 1c-0.23 0.153-0.292 0.463-0.139 0.693 0.153 0.23 0.464 0.29 0.693 0.139L12 17.101l1.223 0.815C13.308 17.973 13.404 18 13.5 18c0.161 0 0.319-0.078 0.417-0.223 0.153-0.23 0.09-0.54-0.139-0.693L12.278 16.084zM12 1.5c-0.276 0-0.5 0.224-0.5 0.5 0 0.276 0.224 0.5 0.5 0.5s0.5-0.224 0.5-0.5C12.5 1.724 12.276 1.5 12 1.5zM21.994 10.298c0.055-1.79-0.382-3.456-1.327-5.069C18.746 1.953 15.508 0 11.997 0h-0.031C6.471 0.018 2 4.504 2 10c0 0.099 0.012 0.194 0.015 0.292C1.403 10.644 1 11.278 1 12v3c0 1.085 0.869 1.966 1.947 1.995 0.281 1.428 0.563 2.647 0.77 3.483 0.217 0.879 0.899 1.572 1.78 1.806l1.174 0.313 0.126 0.377C7.001 23.588 7.574 24 8.22 24h7.559c0.647 0 1.219-0.412 1.423-1.027l0.126-0.377 1.174-0.313c0.881-0.234 1.562-0.927 1.78-1.806 0.207-0.836 0.489-2.055 0.769-3.482C22.13 16.967 23 16.085 23 15v-3C23 11.282 22.601 10.65 21.994 10.298zM2 15v-3c0-0.155 0.047-0.298 0.112-0.431 0.165 1.538 0.393 3.028 0.638 4.38C2.322 15.836 2 15.463 2 15zM16.253 22.658c-0.068 0.204-0.258 0.341-0.474 0.341H8.22c-0.216 0-0.407-0.137-0.474-0.342l-0.554-1.658h1.9C9.299 21.58 9.849 22 10.5 22h3c0.651 0 1.201-0.419 1.408-1h1.898L16.253 22.658zM10 20.5c0-0.276 0.225-0.5 0.5-0.5h3c0.275 0 0.5 0.224 0.5 0.5S13.775 21 13.5 21h-3C10.225 21 10 20.776 10 20.5zM17.218 20h-2.31c-0.207-0.581-0.757-1-1.408-1h-3c-0.651 0-1.2 0.419-1.408 0.999H6.794c-0.7-1.22-1.06-2.877-1.285-4.627C6.075 15.766 6.76 16 7.5 16c1.93 0 3.5-1.57 3.5-3.5S9.43 9 7.5 9c-0.978 0-1.861 0.405-2.497 1.054C5.003 10.036 5 10.018 5 10c0-3.309 3.141-6 7-6s7 2.691 7 6c0 0.018-0.003 0.036-0.003 0.054C18.361 9.405 17.478 9 16.5 9c-1.93 0-3.5 1.57-3.5 3.5s1.57 3.5 3.5 3.5c0.741 0 1.426-0.234 1.992-0.629C18.267 17.117 17.915 18.779 17.218 20zM5.5 12H5.051c0.013-0.066 0.04-0.126 0.058-0.19 0.003-0.008 0.005-0.015 0.007-0.023C5.378 10.914 6.095 10.235 7 10.051V10.5C7 10.776 7.224 11 7.5 11S8 10.776 8 10.5v-0.449C8.978 10.25 9.75 11.022 9.949 12H9.5C9.224 12 9 12.224 9 12.5S9.224 13 9.5 13h0.449C9.75 13.978 8.978 14.75 8 14.949V14.5C8 14.224 7.776 14 7.5 14S7 14.224 7 14.5v0.449c-0.758-0.154-1.383-0.658-1.723-1.33-0.001-0.001-0.001-0.003-0.002-0.004C5.177 13.422 5.095 13.219 5.051 13H5.5C5.776 13 6 12.776 6 12.5S5.776 12 5.5 12zM18.5 13h0.449c-0.199 0.978-0.971 1.75-1.949 1.949V14.5c0-0.276-0.224-0.5-0.5-0.5S16 14.224 16 14.5v0.449c-0.978-0.199-1.75-0.972-1.949-1.949H14.5c0.276 0 0.5-0.224 0.5-0.5S14.776 12 14.5 12h-0.449c0.199-0.978 0.971-1.75 1.949-1.949V10.5c0 0.276 0.224 0.5 0.5 0.5s0.5-0.224 0.5-0.5v-0.449c0.905 0.185 1.623 0.864 1.885 1.739 0.003 0.009 0.005 0.017 0.008 0.026 0.018 0.062 0.044 0.121 0.057 0.185H18.5c-0.276 0-0.5 0.224-0.5 0.5S18.224 13 18.5 13zM20.949 10.948c-0.367 3.81-1.184 7.455-1.638 9.289-0.129 0.526-0.539 0.94-1.067 1.081l-0.538 0.143 0.252-0.756c1.079-1.738 1.457-4.243 1.694-6.71C19.869 13.54 20 13.037 20 12.5c0-0.311-0.054-0.607-0.13-0.894 0.027-0.294 0.054-0.588 0.084-0.861C19.984 10.5 20 10.251 20 10c0-3.86-3.589-7-8-7s-8 3.14-8 7c0 0.25 0.016 0.499 0.048 0.763 0.028 0.256 0.054 0.525 0.079 0.796l0.004 0.044C4.054 11.891 4 12.188 4 12.5c0 0.538 0.132 1.042 0.35 1.498 0.236 2.464 0.613 4.965 1.688 6.699l0.255 0.764-0.538-0.143c-0.528-0.142-0.937-0.556-1.067-1.081-0.454-1.834-1.272-5.479-1.639-9.293-0.032-0.31-0.05-0.625-0.05-0.944 0-4.946 4.024-8.984 8.97-9h0.027c3.152 0 6.069 1.768 7.807 4.735C20.768 7.381 21.143 9.085 20.949 10.948zM22 15c0 0.463-0.323 0.837-0.752 0.95 0.246-1.353 0.474-2.845 0.638-4.383C21.953 11.7 22 11.844 22 12V15zM7.5 13.5c0.552 0 1-0.448 1-1s-0.448-1-1-1-1 0.448-1 1S6.948 13.5 7.5 13.5zM16.5 11.5c-0.552 0-1 0.448-1 1s0.448 1 1 1 1-0.448 1-1S17.052 11.5 16.5 11.5z" fill="#ffffff" data-fill-palette-color="accent"></path></g></g></svg></g></svg></g></svg></g><defs></defs></svg><rect width="395.5199999999999" height="146.42978037557188" fill="none" stroke="none" visibility="hidden"></rect></g></svg></g></svg>